<svg xmlns="http://www.w3.org/2000/svg" viewBox="0 0 217 242" fill="none">
  <path
    fill="#FF0000"
    d="M187.645 67.578c-1.076-2.08-5.113-5.309-5.113-6.948 3.572 0 7.119-.465 9.81-1.81-.073.073-2.984 5.627-4.697 8.759Zm-37.184-17.346-5.186 2.814c-.856 2.691 1.346 5.138.538 5.823-1.125.367-2.324-.171-3.889-2.129-1.565-1.908-2.593-4.135-.636-7.486 4.183-6.826 13.014-3.401 14.213 2.716.073.024-1.369-1.101-5.039-1.737Zm65.073 14.704c-1.174-1.762-2.74-1.908-3.327-1.81-.391.049-.612.122-1.15.171-1.664.049-5.627.024-9.516-.979-3.351-.685-8.391-4.037-8.391-4.037s2.862-4.991-.172-7.144c-4.354-3.278-12.941-5.994-20.304-12.355-3.768-3.547-4.207-5.578-5.431-8-2.691-.758-7.437-.22-9.101 5.725-1.737-2.373-3.033-3.278-5.993-4.673-3.987-1.321-6.899-2.275-11.473-3.547-3.278-1.101-6.801-2.544-8.954-3.915-3.498 2.447-5.382 4.991-4.403 9.639-2.054-1.444-5.651-2.495-10.176-1.37-4.257.416-6.41.465-11.375 1.37-2.862.22-5.773-.098-8.562-.685-2.005 3.548-2.201 9.273.098 12.404-9.908-.783-13.578 2.593-21.992 1.492-3.376 8.269 3.767 16.392 5.773 17.811-2.422.954-6.629 1.541-8.513 2.055 1.786 12.135 6.36 29.383 12.819 40.564 5.822 9.81 10.128 16.979 16.757 23.854 29.381-27.891 81.635-7.364 78.063 37.334-1.248 9.591-4.379 17.028-10.348 24.295-8.195 9.81-20.696 15.902-33.612 16.024l-.367-5.186c21.087-.538 38.677-18.301 38.578-39.561-.22-37.53-48.168-53.776-71.75-24.857-4.355-3.988-9.321-8.905-10.936-10.863-4.696-5.725-11.155-15.388-14.874-22.484-8.953-17.052-13.21-33.836-15.094-51.745-1.933-17.273-.978-40.466 3.4-52.87-33.784-10.471-35.08 33.371-30.946 52.307 6.238 26.716 15.901 43.646 26.615 57.274 14.287 17.444 21.7 23.536 37.111 35.255-.856 1.64-1.566 3.401-2.226 5.138-16.341-10.153-28.451-19.475-42.004-34.521-14.971-15.364-30.579-47.586-31.19-62.828-12.33 1.052-15.731 11.572-17.173 17.493-3.18 13.138 6.091 26.129 11.375 34.57 10.715 14.459 25.955 25.713 36.695 32.245 16.121 9.566 25.27 13.359 40.829 19.084-.318 1.859-.489 3.719-.538 5.627-20.182-4.452-33.172-8.538-53.917-19.768-11.474-7.046-23.706-14.581-33.564-28.991-6.678 5.627-6.727 14.41-5.92 20.037 1.786 12.305 16.708 20.355 23.607 24.294 15.95 7.682 28.059 8.539 38.578 10.3 10.984.856 15.142 1.101 23.167.955 3.18-.172 5.871-.27 8.464-.416.27 1.958.709 3.866 1.248 5.725-16.855 3.401-33.368 5.065-52.351 1.444-11.424-2.447-25.319-6.679-33.245-12.845-2.74 7.853-.441 13.53 2.324 18.398 5.333 9.443 17.833 12.037 25.002 12.942 12.917 1.052 22.628-.318 31.557-2.642 12.183-3.523 17.883-5.725 29.258-10.765.905 1.859 2.055 3.67 3.229 5.358-19.081 13.187-45.477 22.68-68.155 16.27.66 17.273 18.176 17.664 30.016 16.22 11.155-2.495 18.47-7.633 24.072-11.816 6.41-4.771 8.66-7.046 12.232-10.765 2.104-2.006 3.988-3.988 5.504-5.578 1.346 1.37 2.789 2.716 4.306 3.866-.856 1.174-1.883 2.373-2.862 3.596-11.718 14.777-26.078 26.055-45.257 28.527 3.18 5.359 6.531 7.218 10.079 8.074 7.217 1.688 13.674-2.398 18.322-4.551 9.859-6.655 14.042-13.75 19.033-21.848 2.055-3.645 3.229-6.263 5.431-10.496 1.517.856 3.009 1.591 4.624 2.276-.685 2.226-1.541 4.648-2.251 6.532-4.918 11.695-13.602 25.542-26.347 29.702 2.471 3.67 5.969 4.085 8.929 4.355 5.774.489 9.81-2.716 12.721-5.407 4.624-4.82 7.486-12.722 8.66-17.126 1.565-6.287 2.055-10.031 2.911-16.441.22.049.709.172.93.22.759.172 1.394.318 2.104.49.709.098 1.394.22 2.201.318.172.954-.048 2.275-.22 4.599 0 .416-.048.856-.048 1.321-.587 11.939-.881 18.814-9.223 27.72 2.813 1.321 5.822 1.37 8.782.587 6.507-1.811 8.611-5.945 9.198-8.808 1.565-4.966.318-11.279-.538-17.028 1.565-.098 2.642-.22 5.186-.416 30.383-4.257 42.884-19.45 49.122-38.802.759-3.034.71-2.716 1.076-3.915.049-.171.661-1.541.856-2.495 3.547.636 6.777-1.174 5.285-5.554-.367-.954-.172-1.59-1.468-2.227-.71-.318-2.202-2.373-2.643-2.96-3.62-5.26-1.076-9.077-1.076-9.077 3.008-.588 6.727-4.404 4.575-7.169-1.028-1.272-5.015-3.401-6.948-4.77-2.593-1.859-3.988-5.774-4.575-6.459-1.933-3.866-2.03-8-1.394-12.037l.636-1.273c.538-1.052 5.456 1.003 7.217 1.273 2.055.318 7.07-1.223 8.293-3.597 1.517-2.275 2.642-8.685 2.373-10.862l-3.449 1.591c-1.517.709-3.205.978-4.868.783h-.025c-.465-.049-.954-.147-1.419-.27-4.403-1.174-7.095-5.505-6.678-10.006.489-5.554 3.62-10.716 8.537-12.502 3.792-1.37 5.602-1.15 7.877-.391.831.269 1.639.709 2.251 1.37 1.419 1.493 1.394 3.254 2.104 5.823 2.006-1.566 3.327-3.449 4.942-5.235.538-.612.978-1.297 1.297-2.03.684-1.615 1.321-3.67 1.687-5.48.294-1.346.196-2.741-.245-4.037l-.416-1.199c.073-.073 2.813-2.618 1.076-5.211Z"
  />
</svg>
